<svg width="18" height="18" viewBox="0 0 18 18" fill="none" xmlns="http://www.w3.org/2000/svg">
<path d="M6.5 12.9H6.4V13V14.9H5.1V13V12.9H5H3.1V11.6H5H5.1V11.5V9.6H6.4V11.5V11.6H6.5H8.4V12.9H6.5ZM10.1914 4.05L11.1 3.14142L12.4293 4.47071L12.5 4.54142L12.5707 4.47071L13.9 3.14142L14.8086 4.05L13.4793 5.37929L13.4098 5.44877L13.4781 5.51946L14.8098 6.89877L13.9 7.80858L12.5707 6.47929L12.5 6.40858L12.4293 6.47929L11.1 7.80858L10.1902 6.89877L11.5219 5.51946L11.5902 5.44877L11.5207 5.37929L10.1914 4.05ZM0.100002 16.0001V16V2C0.100002 1.47676 0.285298 1.03113 0.658712 0.657712C1.03212 0.284302 1.47738 0.0993675 1.99988 0.100002H2H16C16.5232 0.100002 16.9689 0.285298 17.3423 0.658712C17.7157 1.03212 17.9006 1.47738 17.9 1.99988V2V16C17.9 16.5232 17.7147 16.9689 17.3413 17.3423C16.9679 17.7157 16.5226 17.9006 16.0001 17.9H16H2C1.47676 17.9 1.03113 17.7147 0.657712 17.3413C0.284302 16.9679 0.0993675 16.5226 0.100002 16.0001ZM1.9 16V16.1H2H16H16.1V16V2V1.9H16H2H1.9V2V16ZM10.1 12.85H14.9V14.15H10.1V12.85ZM10.1 10.35H14.9V11.65H10.1V10.35ZM8.15 6.1H3.35V4.8H8.15V6.1Z" fill="#1CAB3E" stroke="white" stroke-width="0.2"/>
</svg>
