<svg width="138" height="37" viewBox="0 0 138 37" fill="none" xmlns="http://www.w3.org/2000/svg">
<path d="M30.9224 3.94738L26.1503 2.75002L22.0462 6.61848L17.9422 2.75002L13.1701 3.94738L10.0205 10.2106L12.502 15.3685L22.1417 25.2239L31.7814 15.3685L34.2629 10.2106L30.9224 3.94738Z" fill="#1E8F38"/>
<path d="M12.0255 3.76322C9.92581 2.84216 7.92151 2.01322 5.82178 1.09216H18.0384C16.0341 2.01322 14.0298 2.84216 12.0255 3.76322Z" fill="#1E8F38"/>
<path d="M3.81831 1.55224L10.881 4.49961L0.573242 3.94697L3.81831 1.55224Z" fill="#1E8F38"/>
<path d="M7.92173 5.51326L5.82198 12.6054C5.82198 14.3554 5.72656 16.0133 5.72656 17.7633C8.58984 20.9871 11.4531 24.1187 14.3164 27.3424C14.4118 26.145 14.4118 25.0397 14.5072 23.8423L15.748 20.2502L12.4075 16.566L9.16247 11.6844C8.87614 11.5002 8.49437 11.2238 8.20805 11.0396C7.92172 11.2238 7.63539 11.4081 7.25362 11.6844C7.34906 11.9607 7.34904 12.237 7.34904 12.5133C8.49435 14.4475 9.6397 16.4739 10.785 18.5002L10.6895 19.1449C10.4986 19.0528 10.3078 18.8686 10.1169 18.7765C8.97159 16.7502 7.92169 14.7238 6.87183 12.6975C6.87183 12.3291 6.87183 11.8686 6.87183 11.5001C7.2536 11.2238 7.73086 10.9475 8.11263 10.6712C8.4944 10.9475 8.87615 11.2238 9.35337 11.5001C9.54425 10.3949 9.73515 9.2896 10.0215 8.18433L9.44879 7.44749L9.25789 6.2501L7.92173 5.51326Z" fill="#1E8F38"/>
<path d="M0.572632 5.05204L0 11.3152L6.5855 5.60468L0.572632 5.05204Z" fill="#1E8F38"/>
<path d="M0.66748 12.1448L6.39403 7.07899C5.91682 8.82901 5.34419 10.6711 4.86697 12.4211C4.86697 13.9869 4.96239 15.4606 4.96239 17.0264C3.53076 15.3685 2.09912 13.8027 0.66748 12.1448Z" fill="#1E8F38"/>
<path d="M24.624 24.4868L22.047 27.342L19.4701 24.4868L18.7065 27.4341L22.047 36L25.3875 27.4341L24.624 24.4868Z" fill="#1E8F38"/>
<path d="M16.2244 21.631L15.27 24.4863L15.0791 28.2627L19.2785 32.9601L17.1788 27.0653L18.3241 23.2889L16.2244 21.631Z" fill="#1E8F38"/>
<path d="M31.9734 3.76322C34.0731 2.84216 36.0774 2.01322 38.1771 1.09216H25.9604C27.9647 2.01322 29.9691 2.84216 31.9734 3.76322Z" fill="#1E8F38"/>
<path d="M40.1812 1.55224L33.2139 4.49961L43.5216 3.94697L40.1812 1.55224Z" fill="#1E8F38"/>
<path d="M36.0776 5.51327L38.1773 12.6054C38.1773 14.3555 38.2727 16.0133 38.2727 17.7633C35.4095 20.9871 32.5462 24.1187 29.7783 27.3424C29.6829 26.145 29.6829 25.0397 29.5875 23.8423L28.3467 20.2502L31.6872 16.566L34.9322 11.6844C35.2186 11.5002 35.6003 11.2238 35.8867 11.0396C36.173 11.2238 36.4593 11.4081 36.8411 11.6844C36.7456 11.9607 36.7457 12.237 36.7457 12.5133C35.6004 14.4476 34.455 16.4739 33.3097 18.5002L33.4052 19.1449C33.5961 19.0528 33.7869 18.8686 33.9778 18.7765C35.1231 16.7502 36.173 14.7239 37.2229 12.6975C37.2229 12.3291 37.2229 11.8686 37.2229 11.5002C36.8411 11.2238 36.3639 10.9475 35.9821 10.6712C35.6003 10.9475 35.2186 11.2238 34.7413 11.5002C34.5505 10.3949 34.3596 9.28961 34.0732 8.18433L34.6459 7.4475L34.8368 6.2501L36.0776 5.51327Z" fill="#1E8F38"/>
<path d="M43.4275 5.05204L44.0001 11.3152L37.4146 5.60468L43.4275 5.05204Z" fill="#1E8F38"/>
<path d="M43.2363 12.1448L37.5098 7.07899C37.987 8.82901 38.5596 10.6711 39.0368 12.4211C39.0368 13.9869 38.9414 15.4606 38.9414 17.0264C40.4685 15.3685 41.9001 13.8027 43.2363 12.1448Z" fill="#1E8F38"/>
<path d="M27.7739 21.631L28.7283 24.4863L28.9192 28.2627L24.7197 32.9601L26.8195 27.0653L25.6742 23.2889L27.7739 21.631Z" fill="#1E8F38"/>
<path d="M25.8644 1.64472C24.5282 1.46051 23.2875 1.18421 21.9513 1C20.6151 1.18421 19.3743 1.46051 18.0381 1.64472C19.3743 2.8421 20.6151 3.94739 21.9513 5.14477C23.2875 3.94739 24.6236 2.8421 25.8644 1.64472Z" fill="#1E8F38"/>
<path d="M14.6978 13.8945H18.3246L20.997 7.81548L23.6694 16.4734L25.0055 13.434L29.205 13.6181L25.1964 14.0787L23.4785 19.9735L20.8061 10.7629L18.8972 14.5392L14.6978 13.8945Z" fill="white"/>
<path d="M63.0019 11.7488H59.6043L55.7212 7.01971L54.7505 8.12808V11.7488H52V0H54.7505V5.24629L59.2807 0H62.6783L57.5818 5.54188L63.0019 11.7488ZM69.4737 11.9704C68.3411 11.9704 67.3704 11.5271 66.5614 10.6404V15H64.1345V3.25123H66.5614V4.3596C67.2895 3.4729 68.2602 3.10344 69.4737 3.10344C70.6871 3.10344 71.6579 3.4729 72.4669 4.28571C73.2758 5.09852 73.5994 6.133 73.5994 7.53694C73.5994 8.94088 73.1949 10.0492 72.4669 10.7882C71.7388 11.601 70.768 11.9704 69.4737 11.9704ZM68.7456 9.97538C69.4736 9.97538 70.04 9.75368 70.4444 9.31033C70.8489 8.86698 71.0916 8.27585 71.0916 7.53694C71.0916 6.79802 70.8489 6.20689 70.4444 5.76354C70.04 5.32019 69.4736 5.09852 68.7456 5.09852C68.3411 5.09852 67.9366 5.17241 67.5321 5.39408C67.1276 5.61576 66.8041 5.83743 66.6423 6.0591V9.08867C66.885 9.38423 67.1276 9.6059 67.5321 9.75369C67.9366 9.90147 68.3411 9.97538 68.7456 9.97538ZM77.806 11.7488H75.46V3.25123H77.8869V8.42365L81.77 3.25123H84.2778V11.7488H81.8509V6.42856L77.806 11.7488ZM90.9922 11.9704C89.536 11.9704 88.4035 11.5271 87.4327 10.7143C86.5429 9.90148 86.0575 8.79309 86.0575 7.46304C86.0575 6.13299 86.5429 5.09852 87.4327 4.28571C88.3226 3.4729 89.536 3.02954 90.9922 3.02954C92.6101 3.02954 93.9044 3.54679 94.7134 4.58127L93.0955 5.98521C92.6101 5.39407 91.963 5.09852 91.154 5.09852C90.426 5.09852 89.7787 5.32019 89.2934 5.76354C88.808 6.20689 88.5653 6.79802 88.5653 7.53694C88.5653 8.27585 88.808 8.86698 89.2934 9.31033C89.7787 9.75368 90.3451 9.97538 91.154 9.97538C91.963 9.97538 92.6101 9.6798 93.0955 9.08867L94.7134 10.4187C93.9044 11.4532 92.691 11.9704 90.9922 11.9704ZM100.538 11.7488H98.0302V5.17242H95.4415V3.17733H103.127V5.17242H100.538V11.7488ZM112.753 11.7488H110.327V10.8621C109.679 11.601 108.709 11.9704 107.333 11.9704C106.524 11.9704 105.715 11.7488 105.068 11.2315C104.421 10.7143 104.097 10.0493 104.097 9.16256C104.097 8.27586 104.421 7.53693 105.068 7.09358C105.715 6.65023 106.524 6.42856 107.333 6.42856C108.628 6.42856 109.679 6.79802 110.327 7.46304V6.28079C110.327 5.83744 110.165 5.46797 109.76 5.24629C109.356 4.95072 108.87 4.87683 108.304 4.87683C107.252 4.87683 106.363 5.24631 105.554 5.91133L104.664 4.4335C105.796 3.5468 107.172 3.10344 108.709 3.10344C109.922 3.10344 110.893 3.32511 111.621 3.84235C112.349 4.35959 112.753 5.17242 112.753 6.28079V11.7488ZM108.304 10.4926C109.194 10.4926 109.841 10.2709 110.246 9.75369V8.71921C109.841 8.20197 109.194 7.98029 108.304 7.98029C107.819 7.98029 107.414 8.12807 107.01 8.34975C106.686 8.57142 106.524 8.86698 106.524 9.31033C106.524 9.67979 106.686 9.97537 107.01 10.197C107.333 10.3448 107.819 10.4926 108.304 10.4926ZM114.29 11.9704V10.1231C114.695 10.1231 115.019 9.90148 115.18 9.53202C115.423 9.08867 115.585 8.42365 115.747 7.38917L116.313 3.25123H123.836V11.7488H121.409V5.17242H118.416L118.093 7.61083C117.931 9.08867 117.526 10.197 116.879 10.936C116.313 11.601 115.423 11.9704 114.29 11.9704ZM125.454 11.9704V10.1231C125.859 10.1231 126.182 9.90148 126.344 9.53202C126.587 9.08867 126.749 8.42365 126.91 7.38917L127.477 3.25123H135V11.7488H132.573V5.17242H129.58L129.256 7.61083C129.095 9.08867 128.69 10.197 128.043 10.936C127.558 11.601 126.668 11.9704 125.454 11.9704Z" fill="#1E8F38"/>
<path d="M58.3735 21.5106H57.3113V17.4149L55.4319 21.5106H54.9417L53.0622 17.4149V21.5106H52V16H53.4708L55.105 19.6489L56.7393 16H58.2101V21.5106H58.3735ZM61.642 21.5851C60.9883 21.5851 60.4163 21.3617 60.0078 20.9894C59.5992 20.617 59.3541 20.0957 59.3541 19.5C59.3541 18.9042 59.5992 18.4574 60.0078 18.0106C60.4163 17.6383 60.9883 17.4149 61.642 17.4149C62.2957 17.4149 62.786 17.6383 63.1946 18.0106C63.6031 18.383 63.7666 18.9042 63.7666 19.5745V19.7979H60.3346C60.3346 20.0957 60.4981 20.3936 60.7432 20.617C60.9883 20.8404 61.3152 20.9149 61.7238 20.9149C61.9689 20.9149 62.1323 20.8404 62.3774 20.766C62.6226 20.6915 62.786 20.617 62.9494 20.4681L63.358 21.0638C62.9494 21.4362 62.3774 21.5851 61.642 21.5851ZM62.786 19.2021C62.786 18.9042 62.6226 18.6808 62.4591 18.4574C62.214 18.234 61.9689 18.1596 61.5603 18.1596C61.1518 18.1596 60.9066 18.234 60.6615 18.4574C60.4164 18.6808 60.3346 18.9042 60.3346 19.2021H62.786ZM64.2568 22.5532V20.8404C64.5019 20.766 64.5837 20.6915 64.7471 20.5425C64.8288 20.3936 64.9105 20.0213 64.9922 19.5L65.2374 17.5638H68.5875V20.766H69.0778V22.5532H68.0973V21.5106H65.1557V22.5532H64.2568ZM66.0545 18.234L65.8911 19.5C65.8093 20.0213 65.6459 20.3936 65.3191 20.6915H67.607V18.234H66.0545ZM70.7938 21.5106H69.895V17.4894H70.8755V20.1702L72.9183 17.4894H73.8988V21.5106H72.9183V18.7553L70.7938 21.5106ZM78.4747 22.5532V21.5106H75.0428V17.4894H76.0234V20.6915H78.0662V17.4894H79.0467V20.6915H79.537V22.4787H78.4747V22.5532ZM81.0895 21.5106H80.1907V17.4894H81.1712V20.1702L83.214 17.4894H84.1946V21.5106H83.214V18.7553L81.0895 21.5106ZM86.3191 21.5106H85.3385V17.4894H86.3191V19.0532H88.3619V17.4894H89.3424V21.5106H88.3619V19.8723H86.3191V21.5106ZM92.5292 21.5851C91.8755 21.5851 91.3035 21.3617 90.895 20.9894C90.4864 20.617 90.2412 20.0957 90.2412 19.5C90.2412 18.9042 90.4864 18.383 90.895 18.0106C91.3035 17.6383 91.8755 17.4149 92.5292 17.4149C93.2646 17.4149 93.8366 17.6383 94.2452 18.1596L93.5914 18.6808C93.3463 18.383 93.0195 18.234 92.6109 18.234C92.2024 18.234 91.8755 18.383 91.6304 18.6064C91.3853 18.8298 91.3035 19.2021 91.3035 19.5745C91.3035 19.9468 91.3853 20.3191 91.6304 20.5425C91.8755 20.7659 92.2024 20.9149 92.6109 20.9149C93.0195 20.9149 93.3463 20.766 93.5914 20.4681L94.2452 20.9894C93.8366 21.3617 93.2646 21.5851 92.5292 21.5851ZM99.1479 21.5106H97.9222L96.6148 19.8723L96.0428 20.4681V21.5106H95.0623V17.4894H96.0428V19.4255L98.0039 17.4894H99.1479L97.3503 19.2766L99.1479 21.5106ZM100.7 21.5106H99.8016V17.4894H100.782V20.1702L102.825 17.4894H103.805V21.5106H102.825V18.7553L100.7 21.5106ZM105.848 21.5106H104.949V17.4894H105.93V20.1702L107.973 17.4894H108.953V21.5106H107.973V18.7553L105.848 21.5106ZM108.545 16.3723C108.136 16.8936 107.646 17.117 106.992 17.117C106.339 17.117 105.767 16.8936 105.358 16.3723L105.767 16.0744C106.093 16.4468 106.42 16.5957 106.911 16.5957C107.401 16.5957 107.809 16.4468 108.055 16.0744L108.545 16.3723ZM115.899 22.5532V21.5106H112.467V17.4894H113.447V20.6915H115.49V17.4894H116.471V20.6915H116.961V22.4787H115.899V22.5532ZM119.658 21.5851C119.004 21.5851 118.432 21.3617 118.023 20.9894C117.615 20.617 117.37 20.0957 117.37 19.5C117.37 18.9042 117.615 18.4574 118.023 18.0106C118.432 17.6383 119.004 17.4149 119.658 17.4149C120.311 17.4149 120.802 17.6383 121.21 18.0106C121.619 18.383 121.782 18.9042 121.782 19.5745V19.7979H118.432C118.432 20.0957 118.595 20.3936 118.84 20.617C119.086 20.8404 119.413 20.9149 119.821 20.9149C120.066 20.9149 120.23 20.8404 120.475 20.766C120.72 20.6915 120.883 20.617 121.047 20.4681L121.455 21.0638C120.965 21.4362 120.393 21.5851 119.658 21.5851ZM120.802 19.2021C120.802 18.9042 120.638 18.6808 120.475 18.4574C120.23 18.234 119.984 18.1596 119.576 18.1596C119.167 18.1596 118.922 18.234 118.677 18.4574C118.432 18.6808 118.35 18.9042 118.35 19.2021H120.802ZM123.661 21.5106H122.681V17.4894H123.661V19.0532H125.704V17.4894H126.685V21.5106H125.704V19.8723H123.661V21.5106ZM129.627 21.5106H128.646V18.3085H127.42V17.5638H130.852V18.3085H129.627V21.5106ZM134.039 21.5851C133.467 21.5851 132.977 21.3617 132.65 20.9149V23H131.669V17.4894H132.65V18.0106C132.977 17.5638 133.467 17.3404 134.039 17.3404C134.611 17.3404 135.101 17.5638 135.428 17.9362C135.755 18.3085 136 18.8298 136 19.5C136 20.1702 135.837 20.6915 135.428 21.0638C135.019 21.4362 134.611 21.5851 134.039 21.5851ZM133.712 20.8404C134.121 20.8404 134.366 20.6915 134.611 20.4681C134.856 20.2447 134.938 19.8723 134.938 19.5C134.938 19.1276 134.856 18.7553 134.611 18.5319C134.366 18.3085 134.121 18.1596 133.712 18.1596C133.467 18.1596 133.304 18.234 133.058 18.3085C132.813 18.383 132.65 18.5319 132.568 18.6808V20.2447C132.65 20.3936 132.813 20.5425 133.058 20.617C133.304 20.6915 133.467 20.8404 133.712 20.8404Z" fill="#2C4A99"/>
<path d="M52.506 36C52.506 35.56 52.5427 35.1713 52.616 34.834C52.6967 34.4893 52.8103 34.1813 52.957 33.91C53.111 33.6387 53.2943 33.4003 53.507 33.195C53.7197 32.9897 53.9617 32.8063 54.233 32.645C54.519 32.4763 54.8123 32.3223 55.113 32.183C55.4137 32.0437 55.6923 31.897 55.949 31.743C56.2057 31.589 56.411 31.4057 56.565 31.193C56.7263 30.973 56.807 30.7017 56.807 30.379C56.807 30.1223 56.752 29.8913 56.642 29.686C56.532 29.4733 56.367 29.3047 56.147 29.18C55.927 29.0553 55.6447 28.993 55.3 28.993C54.9553 28.993 54.6437 29.0517 54.365 29.169C54.0937 29.2863 53.859 29.4257 53.661 29.587C53.463 29.7483 53.3053 29.9023 53.188 30.049L52.561 29.422C52.6197 29.3487 52.7223 29.2387 52.869 29.092C53.023 28.9453 53.2173 28.795 53.452 28.641C53.694 28.487 53.9763 28.3587 54.299 28.256C54.6217 28.146 54.9883 28.091 55.399 28.091C55.949 28.091 56.4073 28.1937 56.774 28.399C57.1407 28.6043 57.4157 28.8793 57.599 29.224C57.7897 29.5687 57.885 29.95 57.885 30.368C57.885 30.742 57.8153 31.0647 57.676 31.336C57.5367 31.6 57.357 31.8237 57.137 32.007C56.917 32.1903 56.675 32.3517 56.411 32.491C56.1543 32.6303 55.905 32.7623 55.663 32.887C55.201 33.107 54.8343 33.3087 54.563 33.492C54.2917 33.6753 54.0827 33.855 53.936 34.031C53.7967 34.1997 53.7013 34.372 53.65 34.548C53.606 34.724 53.5803 34.9147 53.573 35.12H57.896V36H52.506ZM62.3411 36V34.009H58.6671V33.14L62.6381 28.19H63.3091V33.129H64.2771V34.009H63.3091V36H62.3411ZM59.6791 33.129H62.4401V29.675L59.6791 33.129ZM71.3738 28.19L66.0938 36H65.0158L70.2848 28.19H71.3738ZM76.0357 29.081H72.0317V28.19H77.5757L73.6377 36H72.5487L76.0357 29.081ZM77.4647 36V34.768H78.2787V36H77.4647ZM84.7339 28.19H85.5699L88.7599 36H87.7039L86.7799 33.712H83.5019L82.5889 36H81.5329L84.7339 28.19ZM86.5599 32.942L85.1519 29.334L83.6999 32.942H86.5599ZM89.6372 36V30.258H90.6052V32.634H93.5972V30.258H94.5652V36H93.5972V33.492H90.6052V36H89.6372ZM98.6337 36.11C98.2011 36.11 97.8087 36.033 97.4567 35.879C97.1047 35.7177 96.8004 35.5013 96.5437 35.23C96.2871 34.9513 96.0891 34.6323 95.9497 34.273C95.8104 33.9137 95.7407 33.536 95.7407 33.14C95.7407 32.7367 95.8104 32.3553 95.9497 31.996C96.0891 31.6367 96.2871 31.3213 96.5437 31.05C96.8004 30.7713 97.1047 30.555 97.4567 30.401C97.8161 30.2397 98.2084 30.159 98.6337 30.159C99.0664 30.159 99.4587 30.2397 99.8107 30.401C100.163 30.555 100.467 30.7713 100.724 31.05C100.988 31.3213 101.189 31.6367 101.329 31.996C101.468 32.3553 101.538 32.7367 101.538 33.14C101.538 33.536 101.468 33.9137 101.329 34.273C101.189 34.6323 100.991 34.9513 100.735 35.23C100.478 35.5013 100.17 35.7177 99.8107 35.879C99.4587 36.033 99.0664 36.11 98.6337 36.11ZM96.7307 33.151C96.7307 33.547 96.8151 33.9063 96.9837 34.229C97.1597 34.5517 97.3907 34.8083 97.6767 34.999C97.9627 35.1823 98.2817 35.274 98.6337 35.274C98.9857 35.274 99.3047 35.1787 99.5907 34.988C99.8841 34.7973 100.115 34.5407 100.284 34.218C100.46 33.888 100.548 33.525 100.548 33.129C100.548 32.733 100.46 32.3737 100.284 32.051C100.115 31.7283 99.8841 31.4717 99.5907 31.281C99.3047 31.0903 98.9857 30.995 98.6337 30.995C98.2817 30.995 97.9627 31.094 97.6767 31.292C97.3907 31.4827 97.1597 31.7393 96.9837 32.062C96.8151 32.3847 96.7307 32.7477 96.7307 33.151ZM102.7 36V30.258H103.668V32.634H106.66V30.258H107.628V36H106.66V33.492H103.668V36H102.7ZM109.177 36V30.269H110.145V34.702L113.357 30.258H114.237V36H113.269V31.655L110.101 36H109.177ZM115.773 36V30.258H116.774L118.908 34.02L121.053 30.258H122.032V36H121.108V31.655L119.216 34.977H118.6L116.697 31.655V36H115.773ZM123.583 36V30.258H124.551V32.634H127.543V30.258H128.511V36H127.543V33.492H124.551V36H123.583ZM132.579 36.11C132.146 36.11 131.754 36.033 131.402 35.879C131.05 35.7177 130.746 35.5013 130.489 35.23C130.232 34.9513 130.034 34.6323 129.895 34.273C129.756 33.9137 129.686 33.536 129.686 33.14C129.686 32.7367 129.756 32.3553 129.895 31.996C130.034 31.6367 130.232 31.3213 130.489 31.05C130.746 30.7713 131.05 30.555 131.402 30.401C131.761 30.2397 132.154 30.159 132.579 30.159C133.012 30.159 133.404 30.2397 133.756 30.401C134.108 30.555 134.412 30.7713 134.669 31.05C134.933 31.3213 135.135 31.6367 135.274 31.996C135.413 32.3553 135.483 32.7367 135.483 33.14C135.483 33.536 135.413 33.9137 135.274 34.273C135.135 34.6323 134.937 34.9513 134.68 35.23C134.423 35.5013 134.115 35.7177 133.756 35.879C133.404 36.033 133.012 36.11 132.579 36.11ZM130.676 33.151C130.676 33.547 130.76 33.9063 130.929 34.229C131.105 34.5517 131.336 34.8083 131.622 34.999C131.908 35.1823 132.227 35.274 132.579 35.274C132.931 35.274 133.25 35.1787 133.536 34.988C133.829 34.7973 134.06 34.5407 134.229 34.218C134.405 33.888 134.493 33.525 134.493 33.129C134.493 32.733 134.405 32.3737 134.229 32.051C134.06 31.7283 133.829 31.4717 133.536 31.281C133.25 31.0903 132.931 30.995 132.579 30.995C132.227 30.995 131.908 31.094 131.622 31.292C131.336 31.4827 131.105 31.7393 130.929 32.062C130.76 32.3847 130.676 32.7477 130.676 33.151ZM136.364 36V34.768H137.178V36H136.364Z" fill="#040E28" fill-opacity="0.4"/>
</svg>
